<svg version="1.1" id="Layer_1" xmlns="http://www.w3.org/2000/svg" xmlns:xlink="http://www.w3.org/1999/xlink" x="0px" y="0px"
	 width="100%" viewBox="0 0 480 382" enable-background="new 0 0 480 382" xml:space="preserve">
<path fill="#555A6E" opacity="1.000000" stroke="none" 
	d="
M1.000000,358.000000 
	C1.000000,254.977997 1.000000,151.955978 1.468657,48.466984 
	C148.471176,48.000000 295.005035,47.999569 441.538910,48.003593 
	C444.035980,48.003662 446.533081,48.057526 449.022980,48.548615 
	C449.010193,149.495621 449.032013,249.980331 448.964996,350.464966 
	C448.956360,363.396484 443.947693,373.705597 432.100250,380.049683 
	C430.887878,380.698914 430.025055,382.000916 429.000000,383.000000 
	C293.977997,383.000000 158.955978,383.000000 23.250980,382.723633 
	C10.885964,378.261749 4.339738,369.545288 1.000000,358.000000 
M92.559776,187.059753 
	C103.039368,176.576111 113.598175,166.170059 123.970535,155.581360 
	C130.813293,148.595871 130.834015,139.358917 123.965714,132.412415 
	C108.274300,116.542336 92.483994,100.768852 76.621391,85.069771 
	C69.849632,78.367813 60.194340,78.325935 53.799820,84.634171 
	C47.275459,91.070496 47.377827,100.847153 54.254333,107.813599 
	C65.018387,118.718475 75.907471,129.499878 86.729942,140.347198 
	C87.872017,141.491898 88.922684,142.727814 90.261566,144.189804 
	C78.148033,156.286316 66.220100,168.112320 54.394001,180.039322 
	C47.441654,187.050995 47.217270,196.709198 53.658623,203.220184 
	C60.100552,209.731750 69.802055,209.575943 76.846779,202.731155 
	C81.982780,197.740936 86.993324,192.621567 92.559776,187.059753 
M132.982819,202.454361 
	C136.429367,206.239532 140.692596,208.029678 145.830338,208.018936 
	C166.635254,207.975433 187.440506,208.056213 208.245193,207.976044 
	C217.921753,207.938751 225.045654,200.964508 224.988297,191.890793 
	C224.931076,182.839020 217.780258,176.047028 208.028458,176.017731 
	C187.390091,175.955734 166.751328,176.032227 146.112915,175.979630 
	C139.355453,175.962418 134.108276,178.573639 130.917282,184.574112 
	C127.714264,190.597168 128.439362,196.440338 132.982819,202.454361 
z"/>
<path fill="#91C83C" opacity="1.000000" stroke="none" 
	d="
M449.030151,48.086288 
	C446.533081,48.057526 444.035980,48.003662 441.538910,48.003593 
	C295.005035,47.999569 148.471176,48.000000 1.468657,48.000000 
	C1.000000,40.979069 1.000000,33.958134 1.000500,26.077496 
	C4.688311,13.833513 11.799237,5.559190 23.000000,1.000000 
	C157.354233,1.000000 291.708466,1.000000 426.761780,1.249844 
	C439.393402,6.478489 446.916687,15.217359 448.623077,28.079845 
	C449.485992,34.584370 448.886017,41.282978 448.961365,47.944855 
	C448.975281,47.995876 449.030151,48.086285 449.030151,48.086288 
M45.746765,17.607288 
	C40.168320,14.990020 35.698891,16.217997 33.679504,20.922773 
	C31.876741,25.122850 33.945713,29.921404 38.319675,31.471699 
	C41.862362,32.727352 44.990181,31.799643 47.208965,28.877462 
	C50.030563,25.161367 49.523281,21.462269 45.746765,17.607288 
M77.746750,17.607283 
	C72.168274,14.990006 67.698898,16.217978 65.679497,20.922785 
	C63.876736,25.122852 65.945717,29.921410 70.319687,31.471701 
	C73.862373,32.727352 76.990181,31.799623 79.208969,28.877451 
	C82.030579,25.161350 81.523262,21.462263 77.746750,17.607283 
M97.503563,26.676773 
	C101.281326,32.921646 107.886154,33.829929 111.496712,28.549868 
	C113.599197,25.475195 113.585861,22.247047 111.356941,19.280285 
	C109.148247,16.340452 106.054436,15.192953 102.539886,16.475496 
	C98.199326,18.059471 96.468636,21.354773 97.503563,26.676773 
z"/>
<path fill="#463C4B" opacity="1.000000" stroke="none" 
	d="
M429.468658,383.000000 
	C430.025055,382.000916 430.887878,380.698914 432.100250,380.049683 
	C443.947693,373.705597 448.956360,363.396484 448.964996,350.464966 
	C449.032013,249.980331 449.010193,149.495621 449.022980,48.548615 
	C449.030151,48.086285 448.975281,47.995876 449.432434,47.977516 
	C460.259705,47.972771 470.629852,47.986385 481.000000,48.000000 
	C481.000000,151.354233 481.000000,254.708450 480.662659,358.657593 
	C476.999359,371.037689 469.362549,378.770142 458.000000,383.000000 
	C448.645782,383.000000 439.291534,383.000000 429.468658,383.000000 
z"/>
<path fill="#60AA47" opacity="1.000000" stroke="none" 
	d="
M481.000000,47.531422 
	C470.629852,47.986385 460.259705,47.972771 449.418518,47.926491 
	C448.886017,41.282978 449.485992,34.584370 448.623077,28.079845 
	C446.916687,15.217359 439.393402,6.478489 427.230438,1.249844 
	C437.020905,1.000000 447.041779,1.000000 457.829926,1.179214 
	C465.131958,3.786034 470.995575,7.314879 474.765869,13.282513 
	C477.272888,17.250662 478.950928,21.742533 481.000000,25.999996 
	C481.000000,33.020947 481.000000,40.041897 481.000000,47.531422 
z"/>
<path fill="#FBFBFB" opacity="1.000000" stroke="none" 
	d="
M458.468750,383.000000 
	C469.362549,378.770142 476.999359,371.037689 480.662659,359.126251 
	C481.000000,366.924744 481.000000,374.849457 481.000000,383.000000 
	C473.647369,383.000000 466.292419,383.000000 458.468750,383.000000 
z"/>
<path fill="#FBFDFB" opacity="1.000000" stroke="none" 
	d="
M481.000000,25.531319 
	C478.950928,21.742533 477.272888,17.250662 474.765869,13.282513 
	C470.995575,7.314879 465.131958,3.786034 458.298584,1.179214 
	C465.596069,1.000000 473.192169,1.000000 481.000000,1.000000 
	C481.000000,9.019642 481.000000,17.041142 481.000000,25.531319 
z"/>
<path fill="#FEFEFD" opacity="1.000000" stroke="none" 
	d="
M22.531218,1.000000 
	C11.799237,5.559190 4.688311,13.833513 1.000500,25.608894 
	C1.000000,17.745083 1.000000,9.490167 1.000000,1.000000 
	C8.019068,1.000000 15.040751,1.000000 22.531218,1.000000 
z"/>
<path fill="#FDFDFD" opacity="1.000000" stroke="none" 
	d="
M1.000000,358.468689 
	C4.339738,369.545288 10.885964,378.261749 22.783997,382.723633 
	C15.735639,383.000000 8.471278,383.000000 1.000000,383.000000 
	C1.000000,374.980286 1.000000,366.958832 1.000000,358.468689 
z"/>
<path fill="#D6E5EF" opacity="1.000000" stroke="none" 
	d="
M92.309784,187.309753 
	C86.993324,192.621567 81.982780,197.740936 76.846779,202.731155 
	C69.802055,209.575943 60.100552,209.731750 53.658623,203.220184 
	C47.217270,196.709198 47.441654,187.050995 54.394001,180.039322 
	C66.220100,168.112320 78.148033,156.286316 90.261566,144.189804 
	C88.922684,142.727814 87.872017,141.491898 86.729942,140.347198 
	C75.907471,129.499878 65.018387,118.718475 54.254333,107.813599 
	C47.377827,100.847153 47.275459,91.070496 53.799820,84.634171 
	C60.194340,78.325935 69.849632,78.367813 76.621391,85.069771 
	C92.483994,100.768852 108.274300,116.542336 123.965714,132.412415 
	C130.834015,139.358917 130.813293,148.595871 123.970535,155.581360 
	C113.598175,166.170059 103.039368,176.576111 92.309784,187.309753 
z"/>
<path fill="#D6E5EF" opacity="1.000000" stroke="none" 
	d="
M132.740677,202.172409 
	C128.439362,196.440338 127.714264,190.597168 130.917282,184.574112 
	C134.108276,178.573639 139.355453,175.962418 146.112915,175.979630 
	C166.751328,176.032227 187.390091,175.955734 208.028458,176.017731 
	C217.780258,176.047028 224.931076,182.839020 224.988297,191.890793 
	C225.045654,200.964508 217.921753,207.938751 208.245193,207.976044 
	C187.440506,208.056213 166.635254,207.975433 145.830338,208.018936 
	C140.692596,208.029678 136.429367,206.239532 132.740677,202.172409 
z"/>
<path fill="#9B64A5" opacity="1.000000" stroke="none" 
	d="
M46.049309,17.852097 
	C49.523281,21.462269 50.030563,25.161367 47.208965,28.877462 
	C44.990181,31.799643 41.862362,32.727352 38.319675,31.471699 
	C33.945713,29.921404 31.876741,25.122850 33.679504,20.922773 
	C35.698891,16.217997 40.168320,14.990020 46.049309,17.852097 
z"/>
<path fill="#9B64A5" opacity="1.000000" stroke="none" 
	d="
M78.049301,17.852093 
	C81.523262,21.462263 82.030579,25.161350 79.208969,28.877451 
	C76.990181,31.799623 73.862373,32.727352 70.319687,31.471701 
	C65.945717,29.921410 63.876736,25.122852 65.679497,20.922785 
	C67.698898,16.217978 72.168274,14.990006 78.049301,17.852093 
z"/>
<path fill="#9B64A5" opacity="1.000000" stroke="none" 
	d="
M97.372635,26.303379 
	C96.468636,21.354773 98.199326,18.059471 102.539886,16.475496 
	C106.054436,15.192953 109.148247,16.340452 111.356941,19.280285 
	C113.585861,22.247047 113.599197,25.475195 111.496712,28.549868 
	C107.886154,33.829929 101.281326,32.921646 97.372635,26.303379 
z"/>
</svg>