<?xml version="1.0" encoding="UTF-8"?>
<!DOCTYPE svg PUBLIC "-//W3C//DTD SVG 1.1//EN" "http://www.w3.org/Graphics/SVG/1.1/DTD/svg11.dtd">
<svg xmlns="http://www.w3.org/2000/svg" version="1.1" width="512px" height="512px" style="shape-rendering:geometricPrecision; text-rendering:geometricPrecision; image-rendering:optimizeQuality; fill-rule:evenodd; clip-rule:evenodd" xmlns:xlink="http://www.w3.org/1999/xlink">
<g><path style="opacity:0.997" fill="#83cf8f" d="M 246.5,11.5 C 341.346,11.6581 414.18,51.3248 465,130.5C 504.249,200.649 509.582,273.315 481,348.5C 447.436,424.06 390.603,472.226 310.5,493C 217.953,510.925 139.119,486.092 74,418.5C 17.9979,352.483 -0.00214028,277.15 20,192.5C 43.28,112.886 93.4467,57.7198 170.5,27C 195.232,18.1541 220.565,12.9874 246.5,11.5 Z M 245.5,73.5 C 295.14,72.066 333.307,92.066 360,133.5C 386.158,184.557 381.158,232.223 345,276.5C 328.592,293.955 308.759,305.622 285.5,311.5C 288.968,335.018 278.968,346.684 255.5,346.5C 240.424,348.725 230.59,342.725 226,328.5C 225.333,310.167 225.333,291.833 226,273.5C 227.975,265.523 232.808,260.023 240.5,257C 270.878,260.057 294.044,248.891 310,223.5C 322.481,194.909 317.648,169.742 295.5,148C 271.433,130.237 246.433,128.904 220.5,144C 206.599,154.591 197.432,168.424 193,185.5C 189.16,190.004 184.327,192.838 178.5,194C 169.438,194.881 160.438,194.548 151.5,193C 142.39,189.459 137.39,182.793 136.5,173C 146.804,126.361 174.471,95.0277 219.5,79C 228.193,76.6129 236.86,74.7795 245.5,73.5 Z M 243.5,377.5 C 276.987,372.153 290.82,386.153 285,419.5C 282.833,429 277,434.833 267.5,437C 234.344,442.511 220.511,428.678 226,395.5C 228.692,386.309 234.525,380.309 243.5,377.5 Z"/></g>
</svg>
