<?xml version="1.0" encoding="UTF-8"?>
<!DOCTYPE svg PUBLIC "-//W3C//DTD SVG 1.1//EN" "http://www.w3.org/Graphics/SVG/1.1/DTD/svg11.dtd">
<svg xmlns="http://www.w3.org/2000/svg" version="1.1" width="512px" height="512px" style="shape-rendering:geometricPrecision; text-rendering:geometricPrecision; image-rendering:optimizeQuality; fill-rule:evenodd; clip-rule:evenodd" xmlns:xlink="http://www.w3.org/1999/xlink">
<g><path style="opacity:0.977" fill="#020303" d="M 511.5,238.5 C 511.5,253.5 511.5,268.5 511.5,283.5C 510.672,288.357 509.838,293.357 509,298.5C 507.833,299.667 506.667,300.833 505.5,302C 488.833,302.667 472.167,302.667 455.5,302C 454.473,301.487 453.473,300.987 452.5,300.5C 462.012,230.483 442.845,169.816 395,118.5C 391.333,115.664 387.833,112.664 384.5,109.5C 345.884,75.787 300.718,59.1204 249,59.5C 206.807,60.0093 168.64,72.5093 134.5,97C 141.333,99.8333 146.167,104.667 149,111.5C 149.667,121.5 149.667,131.5 149,141.5C 146.723,149.444 141.556,154.278 133.5,156C 112.76,156.178 92.0938,156.678 71.5,157.5C 57.4544,159.649 45.6211,155.649 36,145.5C 34.1395,143.112 32.8061,140.446 32,137.5C 30.3673,109.549 30.034,81.5487 31,53.5C 32.8333,45 38,39.8333 46.5,38C 55.8333,37.3333 65.1667,37.3333 74.5,38C 84.2009,40.37 89.7009,46.5366 91,56.5C 114.696,37.815 141.03,23.815 170,14.5C 173.45,14.804 175.95,16.4707 177.5,19.5C 177.658,22.5455 176.991,25.3788 175.5,28C 142.618,39.5955 113.285,56.9288 87.5,80C 82.4729,82.6197 78.6396,81.453 76,76.5C 75.6667,69.5 75.3333,62.5 75,55.5C 74.5,55 74,54.5 73.5,54C 65.1667,53.3333 56.8333,53.3333 48.5,54C 48,54.5 47.5,55 47,55.5C 46.3333,81.5 46.3333,107.5 47,133.5C 48.4578,135.96 50.2911,138.127 52.5,140C 79.0798,141.648 105.746,141.982 132.5,141C 133,140.5 133.5,140 134,139.5C 134.667,131.167 134.667,122.833 134,114.5C 133.5,114 133,113.5 132.5,113C 124.397,112.937 116.397,112.27 108.5,111C 105.114,107.627 104.614,103.794 107,99.5C 172.521,44.5119 246.021,30.6786 327.5,58C 401.236,87.9147 447.07,141.748 465,219.5C 468.553,241.727 469.386,264.06 467.5,286.5C 476.652,287.494 485.985,287.827 495.5,287.5C 495.5,286.167 495.5,284.833 495.5,283.5C 501.025,192.07 467.691,118.57 395.5,63C 336.844,22.5574 272.177,8.22402 201.5,20C 199.561,18.5679 198.228,16.7346 197.5,14.5C 196.822,10.7273 198.156,7.89399 201.5,6C 306.866,-10.5584 393.033,22.2749 460,104.5C 489.28,144.504 506.446,189.171 511.5,238.5 Z"/></g>
<g><path style="opacity:1" fill="#97e4f9" d="M 197.5,14.5 C 198.228,16.7346 199.561,18.5679 201.5,20C 272.177,8.22402 336.844,22.5574 395.5,63C 467.691,118.57 501.025,192.07 495.5,283.5C 494.596,284.209 494.263,285.209 494.5,286.5C 485.5,286.5 476.5,286.5 467.5,286.5C 469.386,264.06 468.553,241.727 465,219.5C 447.07,141.748 401.236,87.9147 327.5,58C 246.021,30.6786 172.521,44.5119 107,99.5C 104.614,103.794 105.114,107.627 108.5,111C 116.397,112.27 124.397,112.937 132.5,113C 133,113.5 133.5,114 134,114.5C 134.667,122.833 134.667,131.167 134,139.5C 133.5,140 133,140.5 132.5,141C 105.746,141.982 79.0798,141.648 52.5,140C 50.2911,138.127 48.4578,135.96 47,133.5C 46.3333,107.5 46.3333,81.5 47,55.5C 47.5,55 48,54.5 48.5,54C 56.8333,53.3333 65.1667,53.3333 73.5,54C 74,54.5 74.5,55 75,55.5C 75.3333,62.5 75.6667,69.5 76,76.5C 78.6396,81.453 82.4729,82.6197 87.5,80C 113.285,56.9288 142.618,39.5955 175.5,28C 176.991,25.3788 177.658,22.5455 177.5,19.5C 184.171,17.8314 190.838,16.1647 197.5,14.5 Z"/></g>
<g><path style="opacity:1" fill="#c8f5af" d="M 384.5,109.5 C 432.413,176.911 439.58,248.577 406,324.5C 400.396,334.719 394.562,344.719 388.5,354.5C 367.69,353.65 358.69,363.65 361.5,384.5C 308.841,430.819 247.841,447.486 178.5,434.5C 119.211,406.981 80.7112,361.647 63,298.5C 57.0922,271.392 55.9256,244.059 59.5,216.5C 59.3243,211.989 56.991,209.322 52.5,208.5C 56.8654,190.769 63.1988,173.769 71.5,157.5C 92.0938,156.678 112.76,156.178 133.5,156C 141.556,154.278 146.723,149.444 149,141.5C 149.667,131.5 149.667,121.5 149,111.5C 146.167,104.667 141.333,99.8333 134.5,97C 168.64,72.5093 206.807,60.0093 249,59.5C 300.718,59.1204 345.884,75.787 384.5,109.5 Z"/></g>
<g><path style="opacity:1" fill="#9ae49c" d="M 384.5,109.5 C 387.833,112.664 391.333,115.664 395,118.5C 442.845,169.816 462.012,230.483 452.5,300.5C 447.829,318.835 441.163,336.502 432.5,353.5C 417.912,354.483 403.245,354.816 388.5,354.5C 394.562,344.719 400.396,334.719 406,324.5C 439.58,248.577 432.413,176.911 384.5,109.5 Z"/></g>
<g><path style="opacity:0.977" fill="#020303" d="M 52.5,208.5 C 56.991,209.322 59.3243,211.989 59.5,216.5C 55.9256,244.059 57.0922,271.392 63,298.5C 80.7112,361.647 119.211,406.981 178.5,434.5C 221.439,453.206 265.773,456.706 311.5,445C 335.164,438.667 356.83,428.333 376.5,414C 363.99,408.149 358.99,398.316 361.5,384.5C 358.69,363.65 367.69,353.65 388.5,354.5C 403.245,354.816 417.912,354.483 432.5,353.5C 442.64,352.958 452.64,353.791 462.5,356C 472.031,360.194 477.864,367.361 480,377.5C 480.667,404.167 480.667,430.833 480,457.5C 478.167,466 473,471.167 464.5,473C 455.167,473.667 445.833,473.667 436.5,473C 426.799,470.63 421.299,464.463 420,454.5C 397.191,472.576 371.857,486.242 344,495.5C 340.55,495.196 338.05,493.529 336.5,490.5C 335.971,486.808 336.971,483.642 339.5,481C 371.669,469.595 400.336,452.595 425.5,430C 429.791,429.205 432.958,430.705 435,434.5C 435.333,441.5 435.667,448.5 436,455.5C 436.5,456 437,456.5 437.5,457C 445.833,457.667 454.167,457.667 462.5,457C 463,456.5 463.5,456 464,455.5C 464.667,429.5 464.667,403.5 464,377.5C 462.01,373.51 458.843,371.01 454.5,370C 429.167,369.333 403.833,369.333 378.5,370C 378,370.5 377.5,371 377,371.5C 376.333,379.833 376.333,388.167 377,396.5C 377.5,397 378,397.5 378.5,398C 386.603,398.063 394.603,398.73 402.5,400C 405.886,403.373 406.386,407.206 404,411.5C 351.882,455.864 291.715,473.364 223.5,464C 146.493,448.27 91.66,404.77 59,333.5C 44.6551,298.459 39.4884,262.126 43.5,224.5C 39.0124,223.834 34.3457,223.501 29.5,223.5C 24.4492,223.507 19.7825,224.173 15.5,225.5C 9.38066,317.725 42.714,391.892 115.5,448C 175.182,489.97 240.849,503.47 312.5,488.5C 316.61,488.96 319.61,490.96 321.5,494.5C 321.411,497.939 320.078,500.772 317.5,503C 218.534,522.674 134.368,496.174 65,423.5C 27.3184,380.128 5.48508,329.794 -0.5,272.5C -0.5,257.5 -0.5,242.5 -0.5,227.5C 0.328373,222.643 1.16171,217.643 2,212.5C 3.16667,211.333 4.33333,210.167 5.5,209C 21.1631,208.5 36.8298,208.333 52.5,208.5 Z"/></g>
<g><path style="opacity:1" fill="#020302" d="M 172.5,215.5 C 183.172,215.333 193.839,215.5 204.5,216C 210.209,219.545 210.875,223.879 206.5,229C 198.92,230.396 191.253,230.896 183.5,230.5C 183.5,235.833 183.5,241.167 183.5,246.5C 189.842,246.334 196.175,246.5 202.5,247C 208.292,250.508 208.958,254.841 204.5,260C 197.589,261.384 190.589,261.884 183.5,261.5C 183.5,266.833 183.5,272.167 183.5,277.5C 190.508,277.334 197.508,277.5 204.5,278C 209.434,280.665 210.601,284.498 208,289.5C 206.829,290.893 205.329,291.727 203.5,292C 193.167,292.667 182.833,292.667 172.5,292C 171.667,291.167 170.833,290.333 170,289.5C 168.354,266.255 168.021,242.921 169,219.5C 170.376,218.295 171.542,216.962 172.5,215.5 Z"/></g>
<g><path style="opacity:1" fill="#020302" d="M 305.5,215.5 C 316.172,215.333 326.839,215.5 337.5,216C 343.209,219.545 343.875,223.879 339.5,229C 331.92,230.396 324.253,230.896 316.5,230.5C 316.5,235.833 316.5,241.167 316.5,246.5C 322.842,246.334 329.175,246.5 335.5,247C 341.292,250.508 341.958,254.841 337.5,260C 330.589,261.384 323.589,261.884 316.5,261.5C 316.5,266.833 316.5,272.167 316.5,277.5C 323.508,277.334 330.508,277.5 337.5,278C 342.434,280.665 343.601,284.498 341,289.5C 339.829,290.893 338.329,291.727 336.5,292C 326.167,292.667 315.833,292.667 305.5,292C 304.667,291.167 303.833,290.333 303,289.5C 301.354,266.255 301.021,242.921 302,219.5C 303.376,218.295 304.542,216.962 305.5,215.5 Z"/></g>
<g><path style="opacity:1" fill="#030403" d="M 100.5,216.5 C 109.506,216.334 118.506,216.5 127.5,217C 143.376,223.251 148.543,234.417 143,250.5C 139.306,256.531 134.139,260.697 127.5,263C 133.708,269.539 139.541,276.373 145,283.5C 145.622,291.211 142.122,294.378 134.5,293C 127,284.833 119.5,276.667 112,268.5C 111.93,275.939 111.263,283.272 110,290.5C 106,294.5 102,294.5 98,290.5C 96.3546,267.588 96.0212,244.588 97,221.5C 97.9973,219.677 99.1639,218.01 100.5,216.5 Z"/></g>
<g><path style="opacity:1" fill="#030403" d="M 248.5,216.5 C 260.593,215.143 271.093,218.477 280,226.5C 281.955,234.791 278.788,238.291 270.5,237C 264.696,231.955 258.029,230.288 250.5,232C 246.075,234.549 245.408,237.882 248.5,242C 255.833,245 263.167,248 270.5,251C 282.736,258.284 285.903,268.45 280,281.5C 275.768,287.726 269.934,291.559 262.5,293C 249.211,295.269 238.044,291.436 229,281.5C 226.204,275.093 228.204,271.093 235,269.5C 239.897,272.701 245.064,275.535 250.5,278C 255.768,279.068 260.768,278.401 265.5,276C 269.737,271.939 269.403,268.272 264.5,265C 256.049,261.608 247.716,257.941 239.5,254C 230.682,245.736 229.182,236.236 235,225.5C 238.826,221.348 243.326,218.348 248.5,216.5 Z"/></g>
<g><path style="opacity:1" fill="#060705" d="M 366.5,216.5 C 380.171,216.333 393.837,216.5 407.5,217C 413.232,222.608 412.565,227.274 405.5,231C 401.848,231.499 398.182,231.665 394.5,231.5C 394.667,250.503 394.5,269.503 394,288.5C 390.987,293.535 386.82,294.702 381.5,292C 380.874,291.25 380.374,290.416 380,289.5C 379.5,270.17 379.333,250.836 379.5,231.5C 375.486,231.666 371.486,231.499 367.5,231C 362.776,228.565 361.276,224.731 363,219.5C 364.145,218.364 365.312,217.364 366.5,216.5 Z"/></g>
<g><path style="opacity:1" fill="#6497a6" d="M 43.5,224.5 C 34.0833,224.195 24.75,224.528 15.5,225.5C 19.7825,224.173 24.4492,223.507 29.5,223.5C 34.3457,223.501 39.0124,223.834 43.5,224.5 Z"/></g>
<g><path style="opacity:1" fill="#97e4f9" d="M 43.5,224.5 C 39.4884,262.126 44.6551,298.459 59,333.5C 91.66,404.77 146.493,448.27 223.5,464C 291.715,473.364 351.882,455.864 404,411.5C 406.386,407.206 405.886,403.373 402.5,400C 394.603,398.73 386.603,398.063 378.5,398C 378,397.5 377.5,397 377,396.5C 376.333,388.167 376.333,379.833 377,371.5C 377.5,371 378,370.5 378.5,370C 403.833,369.333 429.167,369.333 454.5,370C 458.843,371.01 462.01,373.51 464,377.5C 464.667,403.5 464.667,429.5 464,455.5C 463.5,456 463,456.5 462.5,457C 454.167,457.667 445.833,457.667 437.5,457C 437,456.5 436.5,456 436,455.5C 435.667,448.5 435.333,441.5 435,434.5C 432.958,430.705 429.791,429.205 425.5,430C 400.336,452.595 371.669,469.595 339.5,481C 336.971,483.642 335.971,486.808 336.5,490.5C 331.543,491.989 326.543,493.322 321.5,494.5C 319.61,490.96 316.61,488.96 312.5,488.5C 240.849,503.47 175.182,489.97 115.5,448C 42.714,391.892 9.38066,317.725 15.5,225.5C 24.75,224.528 34.0833,224.195 43.5,224.5 Z"/></g>
<g><path style="opacity:1" fill="#c4f0ac" d="M 111.5,231.5 C 115.846,231.334 120.179,231.501 124.5,232C 132.41,237.248 132.41,242.581 124.5,248C 120.179,248.499 115.846,248.666 111.5,248.5C 111.5,242.833 111.5,237.167 111.5,231.5 Z"/></g>
<g><path style="opacity:1" fill="#669aa9" d="M 495.5,283.5 C 495.5,284.833 495.5,286.167 495.5,287.5C 485.985,287.827 476.652,287.494 467.5,286.5C 476.5,286.5 485.5,286.5 494.5,286.5C 494.263,285.209 494.596,284.209 495.5,283.5 Z"/></g>
<g><path style="opacity:1" fill="#99e39b" d="M 361.5,384.5 C 358.99,398.316 363.99,408.149 376.5,414C 356.83,428.333 335.164,438.667 311.5,445C 265.773,456.706 221.439,453.206 178.5,434.5C 247.841,447.486 308.841,430.819 361.5,384.5 Z"/></g>
</svg>
