<?xml version="1.0" encoding="UTF-8"?>
<!DOCTYPE svg PUBLIC "-//W3C//DTD SVG 1.1//EN" "http://www.w3.org/Graphics/SVG/1.1/DTD/svg11.dtd">
<svg xmlns="http://www.w3.org/2000/svg" version="1.1" width="512px" height="512px" style="shape-rendering:geometricPrecision; text-rendering:geometricPrecision; image-rendering:optimizeQuality; fill-rule:evenodd; clip-rule:evenodd" xmlns:xlink="http://www.w3.org/1999/xlink">
<g><path style="opacity:0.999" fill="#178feb" d="M 62.5,-0.5 C 191.167,-0.5 319.833,-0.5 448.5,-0.5C 482.5,7.5 503.5,28.5 511.5,62.5C 511.5,191.167 511.5,319.833 511.5,448.5C 503.5,482.5 482.5,503.5 448.5,511.5C 319.833,511.5 191.167,511.5 62.5,511.5C 28.5,503.5 7.5,482.5 -0.5,448.5C -0.5,319.833 -0.5,191.167 -0.5,62.5C 7.5,28.5 28.5,7.5 62.5,-0.5 Z"/></g>
<g><path style="opacity:1" fill="#fefefe" d="M 238.5,67.5 C 249.505,67.3335 260.505,67.5002 271.5,68C 276,69.8333 279.167,73 281,77.5C 281.5,92.1629 281.667,106.83 281.5,121.5C 299.854,124.43 316.687,131.097 332,141.5C 342.458,132.043 352.625,122.209 362.5,112C 367.468,108.768 372.468,108.768 377.5,112C 385.365,119.53 392.865,127.364 400,135.5C 401.041,140.44 400.374,145.106 398,149.5C 388.124,159.042 378.624,168.875 369.5,179C 379.802,194.407 386.468,211.24 389.5,229.5C 404.17,229.333 418.837,229.5 433.5,230C 438.333,231.5 441.5,234.667 443,239.5C 443.667,250.167 443.667,260.833 443,271.5C 441.167,276 438,279.167 433.5,281C 418.822,281.167 404.155,281.667 389.5,282.5C 385.828,299.351 379.328,315.017 370,329.5C 369.333,330.833 369.333,332.167 370,333.5C 379.667,343.167 389.333,352.833 399,362.5C 402.232,367.468 402.232,372.468 399,377.5C 391.833,384.667 384.667,391.833 377.5,399C 371.918,401.306 366.584,400.972 361.5,398C 351.667,388.167 341.833,378.333 332,368.5C 316.84,378.494 300.34,385.328 282.5,389C 281.675,403.759 281.175,418.592 281,433.5C 279.509,438.293 276.343,441.46 271.5,443C 260.833,443.667 250.167,443.667 239.5,443C 235,441.167 231.833,438 230,433.5C 229.833,418.822 229.333,404.155 228.5,389.5C 211.504,386.223 195.837,379.723 181.5,370C 180.167,369.333 178.833,369.333 177.5,370C 167.833,379.667 158.167,389.333 148.5,399C 143.5,402.333 138.5,402.333 133.5,399C 126.333,391.833 119.167,384.667 112,377.5C 110.543,373.259 110.209,368.926 111,364.5C 121.179,353.655 131.346,342.821 141.5,332C 131.592,316.443 124.926,299.609 121.5,281.5C 106.496,281.667 91.4963,281.5 76.5,281C 72.4067,278.993 69.5733,275.827 68,271.5C 67.3333,260.833 67.3333,250.167 68,239.5C 69.8333,235 73,231.833 77.5,230C 91.8449,229.833 106.178,229.333 120.5,228.5C 124.757,210.657 131.757,193.99 141.5,178.5C 131.848,168.347 122.014,158.347 112,148.5C 108.667,143.5 108.667,138.5 112,133.5C 119.53,125.635 127.364,118.135 135.5,111C 140.44,109.959 145.106,110.626 149.5,113C 159.014,122.681 168.681,132.181 178.5,141.5C 194.124,131.18 211.124,124.18 229.5,120.5C 229.333,105.83 229.5,91.1629 230,76.5C 232.094,72.724 234.927,69.724 238.5,67.5 Z"/></g>
<g><path style="opacity:1" fill="#188feb" d="M 244.5,169.5 C 288.22,167.596 318.72,186.596 336,226.5C 347.769,270.757 334.602,305.257 296.5,330C 256.891,348.594 221.724,342.427 191,311.5C 169.149,283.894 164.482,253.56 177,220.5C 191.025,192.242 213.525,175.242 244.5,169.5 Z"/></g>
</svg>
