<svg width="74" height="67" viewBox="0 0 74 67" fill="none" xmlns="http://www.w3.org/2000/svg">
<rect x="0.5" y="0.5" width="73" height="66" rx="14.5" fill="url(#paint0_linear_7_12)" stroke="#61A94F"/>
<path d="M67.4936 14.9996L67.4936 15.0009C67.56 16.2131 67.1032 17.4414 66.305 18.3688L33.2405 52.8843C32.2318 53.8805 30.9647 54.4345 29.6341 54.5H29.2802C27.9984 54.5 26.7255 54.061 25.8018 53.2645L25.8018 53.2645L25.7974 53.2607L8.15874 38.4049L8.15882 38.4048L8.14992 38.3976C7.1642 37.6052 6.57337 36.4501 6.50638 35.1652L6.05233 35.1889L6.50638 35.1652C6.43936 33.8801 6.90159 32.6621 7.82328 31.7456L7.82969 31.7392L7.83586 31.7326C8.68935 30.8203 9.95071 30.2582 11.3724 30.1945L11.3505 29.706L11.3724 30.1945C12.7941 30.1308 14.1297 30.5721 15.1225 31.4301L15.1225 31.4302L15.1275 31.4344L28.515 42.6994L28.8735 43.0011L29.1978 42.6629L58.4711 12.1344L58.4711 12.1344L58.4753 12.1299C59.3393 11.2064 60.6061 10.5859 62.0119 10.5229L62.023 10.5224L62.0341 10.5214C63.4404 10.3953 64.7692 10.8316 65.762 11.6896C66.7762 12.5661 67.4276 13.7336 67.4936 14.9996Z" fill="white" stroke="#35961D"/>
<defs>
<linearGradient id="paint0_linear_7_12" x1="37" y1="67" x2="37" y2="0" gradientUnits="userSpaceOnUse">
<stop stop-color="#368323"/>
<stop offset="0.2" stop-color="#4AB230"/>
<stop offset="0.4" stop-color="#4AB230"/>
<stop offset="0.6" stop-color="#4AB230"/>
</linearGradient>
</defs>
</svg>
