<?xml version="1.0" encoding="UTF-8"?>
<!DOCTYPE svg PUBLIC "-//W3C//DTD SVG 1.1//EN" "http://www.w3.org/Graphics/SVG/1.1/DTD/svg11.dtd">
<svg xmlns="http://www.w3.org/2000/svg" version="1.1" width="496px" height="494px" style="shape-rendering:geometricPrecision; text-rendering:geometricPrecision; image-rendering:optimizeQuality; fill-rule:evenodd; clip-rule:evenodd" xmlns:xlink="http://www.w3.org/1999/xlink">
<g><path style="opacity:1" fill="#014960" d="M 25.5,-0.5 C 164.833,-0.5 304.167,-0.5 443.5,-0.5C 458.161,2.32045 467.661,10.9871 472,25.5C 472.5,45.1638 472.667,64.8305 472.5,84.5C 315.167,84.5 157.833,84.5 0.5,84.5C 0.33338,64.4972 0.500046,44.4972 1,24.5C 4.68291,11.6514 12.8496,3.31807 25.5,-0.5 Z"/></g>
<g><path style="opacity:1" fill="#023849" d="M 443.5,-0.5 C 452.167,-0.5 460.833,-0.5 469.5,-0.5C 482.15,3.31807 490.317,11.6514 494,24.5C 494.5,44.4972 494.667,64.4972 494.5,84.5C 487.167,84.5 479.833,84.5 472.5,84.5C 472.667,64.8305 472.5,45.1638 472,25.5C 467.661,10.9871 458.161,2.32045 443.5,-0.5 Z"/></g>
<g><path style="opacity:1" fill="#f76356" d="M 41.5,30.5 C 53.3262,28.8329 58.8262,33.8329 58,45.5C 54.9157,52.9549 49.4157,55.4549 41.5,53C 35.9393,49.7103 33.7726,44.877 35,38.5C 36.3046,35.0386 38.4713,32.372 41.5,30.5 Z"/></g>
<g><path style="opacity:1" fill="#f8d228" d="M 88.5,29.5 C 100.542,30.702 104.709,37.0354 101,48.5C 94.6336,56.0099 87.967,56.3432 81,49.5C 76.5208,40.1362 79.0208,33.4695 88.5,29.5 Z"/></g>
<g><path style="opacity:1" fill="#6acf5f" d="M 132.5,29.5 C 144.542,30.702 148.709,37.0354 145,48.5C 138.675,55.9997 132.009,56.3331 125,49.5C 120.521,40.1362 123.021,33.4695 132.5,29.5 Z"/></g>
<g><path style="opacity:1" fill="#e9f0f3" d="M 297.5,34.5 C 348.168,34.3333 398.834,34.5 449.5,35C 453.753,38.4204 454.587,42.5871 452,47.5C 450.581,48.4601 449.081,49.2935 447.5,50C 397.833,50.6667 348.167,50.6667 298.5,50C 293.776,47.5647 292.276,43.7314 294,38.5C 294.69,36.6498 295.856,35.3164 297.5,34.5 Z"/></g>
<g><path style="opacity:1" fill="#64b5f5" d="M 0.5,84.5 C 157.833,84.5 315.167,84.5 472.5,84.5C 479.833,84.5 487.167,84.5 494.5,84.5C 494.5,84.8333 494.5,85.1667 494.5,85.5C 487.167,85.5 479.833,85.5 472.5,85.5C 472.667,212.5 472.5,339.5 472,466.5C 468.235,481.099 459.068,490.099 444.5,493.5C 304.833,493.5 165.167,493.5 25.5,493.5C 12.8496,489.682 4.68291,481.349 1,468.5C 0.500001,340.5 0.333334,212.5 0.5,84.5 Z"/></g>
<g><path style="opacity:1" fill="#43a5f5" d="M 494.5,85.5 C 494.667,213.167 494.5,340.834 494,468.5C 490.317,481.349 482.15,489.682 469.5,493.5C 461.167,493.5 452.833,493.5 444.5,493.5C 459.068,490.099 468.235,481.099 472,466.5C 472.5,339.5 472.667,212.5 472.5,85.5C 479.833,85.5 487.167,85.5 494.5,85.5 Z"/></g>
<g><path style="opacity:1" fill="#cef0fe" d="M 57.5,119.5 C 56.5028,206.096 56.1695,292.763 56.5,379.5C 52.3533,384.45 52.6867,389.116 57.5,393.5C 56.1667,399.833 56.1667,406.167 57.5,412.5C 52.2891,417.133 52.2891,421.8 57.5,426.5C 56.1818,437.069 56.1818,447.735 57.5,458.5C 49.9129,458.814 42.4129,458.481 35,457.5C 34.3333,345.167 34.3333,232.833 35,120.5C 42.4129,119.519 49.9129,119.186 57.5,119.5 Z"/></g>
<g><path style="opacity:1" fill="#e5f7fe" d="M 57.5,119.5 C 191.167,119.333 324.834,119.5 458.5,120C 459.499,232.763 459.832,345.596 459.5,458.5C 325.5,458.5 191.5,458.5 57.5,458.5C 56.1818,447.735 56.1818,437.069 57.5,426.5C 84.0945,427.657 110.761,427.824 137.5,427C 142.535,423.987 143.702,419.82 141,414.5C 139.829,413.107 138.329,412.273 136.5,412C 110.095,411.177 83.7612,411.343 57.5,412.5C 56.1667,406.167 56.1667,399.833 57.5,393.5C 83.7909,394.649 110.124,394.815 136.5,394C 143.491,389.736 144.157,384.736 138.5,379C 111.124,378.184 83.791,378.351 56.5,379.5C 56.1695,292.763 56.5028,206.096 57.5,119.5 Z"/></g>
<g><path style="opacity:1" fill="#64b5f5" d="M 131.5,142.5 C 131.5,156.5 131.5,170.5 131.5,184.5C 110.304,187.856 100.47,200.189 102,221.5C 103.82,229.156 107.654,235.49 113.5,240.5C 105.479,250.528 97.8128,260.861 90.5,271.5C 89.5,271.833 88.8333,272.5 88.5,273.5C 72.6985,262.261 63.1985,246.927 60,227.5C 56.553,184.554 75.3863,156.721 116.5,144C 121.448,142.95 126.448,142.45 131.5,142.5 Z"/></g>
<g><path style="opacity:1" fill="#bcc985" d="M 131.5,142.5 C 134.385,142.194 137.052,142.527 139.5,143.5C 137.167,143.5 134.833,143.5 132.5,143.5C 132.5,157.167 132.5,170.833 132.5,184.5C 132.167,184.5 131.833,184.5 131.5,184.5C 131.5,170.5 131.5,156.5 131.5,142.5 Z"/></g>
<g><path style="opacity:1" fill="#fed92d" d="M 139.5,143.5 C 155.312,144.912 168.979,150.912 180.5,161.5C 197.732,186.082 200.066,212.082 187.5,239.5C 178.5,235.5 169.5,231.5 160.5,227.5C 165.244,214.285 162.578,202.951 152.5,193.5C 147.151,187.83 140.484,184.83 132.5,184.5C 132.5,170.833 132.5,157.167 132.5,143.5C 134.833,143.5 137.167,143.5 139.5,143.5 Z"/></g>
<g><path style="opacity:1" fill="#fdc709" d="M 180.5,161.5 C 199.845,179.229 207.679,201.229 204,227.5C 202.916,233.535 201.083,239.202 198.5,244.5C 194.952,242.559 191.286,240.893 187.5,239.5C 200.066,212.082 197.732,186.082 180.5,161.5 Z"/></g>
<g><path style="opacity:1" fill="#e0e2e3" d="M 131.5,184.5 C 131.833,184.5 132.167,184.5 132.5,184.5C 140.484,184.83 147.151,187.83 152.5,193.5C 134.126,187.124 120.293,192.457 111,209.5C 106.847,221.205 108.681,231.871 116.5,241.5C 115.391,241.443 114.391,241.11 113.5,240.5C 107.654,235.49 103.82,229.156 102,221.5C 100.47,200.189 110.304,187.856 131.5,184.5 Z"/></g>
<g><path style="opacity:1" fill="#eef3f5" d="M 152.5,193.5 C 162.578,202.951 165.244,214.285 160.5,227.5C 152.271,242.779 139.604,248.612 122.5,245C 120.273,244.059 118.273,242.892 116.5,241.5C 108.681,231.871 106.847,221.205 111,209.5C 120.293,192.457 134.126,187.124 152.5,193.5 Z"/></g>
<g><path style="opacity:1" fill="#fed6bd" d="M 352.5,273.5 C 350.953,267.958 347.62,263.958 342.5,261.5C 358.637,246.2 374.97,231.033 391.5,216C 386.718,215.881 382.051,215.215 377.5,214C 373.018,210.295 372.351,205.962 375.5,201C 384.398,199.391 393.398,199.058 402.5,200C 406.833,200.333 411.167,200.667 415.5,201C 418.635,202.266 420.302,204.599 420.5,208C 418.738,220.35 416.238,232.517 413,244.5C 408.375,248.646 404.041,248.313 400,243.5C 399.709,238.811 399.709,234.144 400,229.5C 384.597,244.74 368.764,259.407 352.5,273.5 Z"/></g>
<g><path style="opacity:1" fill="#fec810" d="M 274.5,217.5 C 262.084,212.937 252.917,216.937 247,229.5C 246.349,234.293 246.849,238.959 248.5,243.5C 246.473,242.139 244.806,240.473 243.5,238.5C 238.436,219.398 245.769,210.232 265.5,211C 269.24,212.198 272.24,214.365 274.5,217.5 Z"/></g>
<g><path style="opacity:1" fill="#fed92e" d="M 274.5,217.5 C 276.974,219.898 278.308,222.898 278.5,226.5C 279.328,234.362 276.661,240.695 270.5,245.5C 265.659,247.152 260.659,247.818 255.5,247.5C 252.669,246.921 250.336,245.588 248.5,243.5C 246.849,238.959 246.349,234.293 247,229.5C 252.917,216.937 262.084,212.937 274.5,217.5 Z"/></g>
<g><path style="opacity:1" fill="#72d461" d="M 160.5,227.5 C 169.5,231.5 178.5,235.5 187.5,239.5C 169.713,269.392 143.379,282.225 108.5,278C 102.215,276.517 96.2155,274.351 90.5,271.5C 97.8128,260.861 105.479,250.528 113.5,240.5C 114.391,241.11 115.391,241.443 116.5,241.5C 118.273,242.892 120.273,244.059 122.5,245C 139.604,248.612 152.271,242.779 160.5,227.5 Z"/></g>
<g><path style="opacity:1" fill="#fed6bd" d="M 278.5,226.5 C 279.033,229.122 280.033,231.622 281.5,234C 296.053,243.77 310.72,253.27 325.5,262.5C 320.19,265.802 316.856,270.469 315.5,276.5C 300.674,265.92 285.674,255.586 270.5,245.5C 276.661,240.695 279.328,234.362 278.5,226.5 Z"/></g>
<g><path style="opacity:1" fill="#fed6bd" d="M 243.5,238.5 C 244.806,240.473 246.473,242.139 248.5,243.5C 250.336,245.588 252.669,246.921 255.5,247.5C 237.833,270.833 220.167,294.167 202.5,317.5C 201.728,316.306 200.728,315.306 199.5,314.5C 197.335,310.991 194.335,308.658 190.5,307.5C 207.815,284.191 225.481,261.191 243.5,238.5 Z"/></g>
<g><path style="opacity:1" fill="#58ca5b" d="M 187.5,239.5 C 191.286,240.893 194.952,242.559 198.5,244.5C 185.163,272.97 162.663,287.637 131,288.5C 114.985,288.331 100.818,283.331 88.5,273.5C 88.8333,272.5 89.5,271.833 90.5,271.5C 96.2155,274.351 102.215,276.517 108.5,278C 143.379,282.225 169.713,269.392 187.5,239.5 Z"/></g>
<g><path style="opacity:1" fill="#64b5f6" d="M 420.5,261.5 C 420.667,320.501 420.5,379.501 420,438.5C 419.5,439 419,439.5 418.5,440C 408.506,440.5 398.506,440.666 388.5,440.5C 388.333,381.499 388.5,322.499 389,263.5C 389.5,263 390,262.5 390.5,262C 400.494,261.5 410.494,261.334 420.5,261.5 Z"/></g>
<g><path style="opacity:1" fill="#44a5f5" d="M 420.5,261.5 C 424.007,260.994 427.174,261.66 430,263.5C 430.667,325.5 430.667,387.5 430,449.5C 429.167,450.333 428.333,451.167 427.5,452C 415.5,452.667 403.5,452.667 391.5,452C 390.584,451.626 389.75,451.126 389,450.5C 388.502,447.183 388.335,443.85 388.5,440.5C 398.506,440.666 408.506,440.5 418.5,440C 419,439.5 419.5,439 420,438.5C 420.5,379.501 420.667,320.501 420.5,261.5 Z"/></g>
<g><path style="opacity:1" fill="#6ed361" d="M 342.5,261.5 C 347.62,263.958 350.953,267.958 352.5,273.5C 354.379,291.12 346.379,298.953 328.5,297C 319.771,293.059 315.438,286.225 315.5,276.5C 316.856,270.469 320.19,265.802 325.5,262.5C 331.015,260.25 336.682,259.917 342.5,261.5 Z"/></g>
<g><path style="opacity:1" fill="#feda30" d="M 271.5,294.5 C 271.667,342.501 271.5,390.501 271,438.5C 270.5,439 270,439.5 269.5,440C 259.172,440.5 248.839,440.666 238.5,440.5C 238.333,392.832 238.5,345.166 239,297.5C 239.903,296.299 241.069,295.465 242.5,295C 252.161,294.5 261.828,294.334 271.5,294.5 Z"/></g>
<g><path style="opacity:1" fill="#fec707" d="M 271.5,294.5 C 275.287,293.814 278.454,294.814 281,297.5C 281.667,348.167 281.667,398.833 281,449.5C 280.167,450.333 279.333,451.167 278.5,452C 266.5,452.667 254.5,452.667 242.5,452C 241.069,451.535 239.903,450.701 239,449.5C 238.502,446.518 238.335,443.518 238.5,440.5C 248.839,440.666 259.172,440.5 269.5,440C 270,439.5 270.5,439 271,438.5C 271.5,390.501 271.667,342.501 271.5,294.5 Z"/></g>
<g><path style="opacity:1" fill="#f35648" d="M 190.5,307.5 C 194.335,308.658 197.335,310.991 199.5,314.5C 187.788,310.237 178.955,313.57 173,324.5C 172.667,328.167 172.333,331.833 172,335.5C 171.617,336.056 171.117,336.389 170.5,336.5C 164.03,325.366 166.363,316.199 177.5,309C 181.73,307.71 186.064,307.21 190.5,307.5 Z"/></g>
<g><path style="opacity:1" fill="#fb695c" d="M 199.5,314.5 C 200.728,315.306 201.728,316.306 202.5,317.5C 206.841,336.623 199.174,345.457 179.5,344C 175.206,342.879 172.206,340.379 170.5,336.5C 171.117,336.389 171.617,336.056 172,335.5C 172.333,331.833 172.667,328.167 173,324.5C 178.955,313.57 187.788,310.237 199.5,314.5 Z"/></g>
<g><path style="opacity:1" fill="#72d561" d="M 345.5,330.5 C 345.667,366.502 345.5,402.502 345,438.5C 344.5,439 344,439.5 343.5,440C 333.506,440.5 323.506,440.666 313.5,440.5C 313.333,404.498 313.5,368.498 314,332.5C 314.5,332 315,331.5 315.5,331C 325.494,330.5 335.494,330.334 345.5,330.5 Z"/></g>
<g><path style="opacity:1" fill="#5bcb5d" d="M 345.5,330.5 C 348.187,330.336 350.854,330.503 353.5,331C 354.667,331.5 355.5,332.333 356,333.5C 356.667,371.833 356.667,410.167 356,448.5C 355.5,450.333 354.333,451.5 352.5,452C 340.5,452.667 328.5,452.667 316.5,452C 315.667,451.167 314.833,450.333 314,449.5C 313.502,446.518 313.335,443.518 313.5,440.5C 323.506,440.666 333.506,440.5 343.5,440C 344,439.5 344.5,439 345,438.5C 345.5,402.502 345.667,366.502 345.5,330.5 Z"/></g>
<g><path style="opacity:1" fill="#044b62" d="M 88.5,344.5 C 104.503,344.333 120.503,344.5 136.5,345C 141.599,346.695 143.432,350.195 142,355.5C 141.167,357.667 139.667,359.167 137.5,360C 121.167,360.667 104.833,360.667 88.5,360C 85.5872,358.187 83.9205,355.52 83.5,352C 84.5463,349.114 86.2129,346.614 88.5,344.5 Z"/></g>
<g><path style="opacity:1" fill="#fb685b" d="M 196.5,377.5 C 196.667,397.836 196.5,418.169 196,438.5C 195.5,439 195,439.5 194.5,440C 184.506,440.5 174.506,440.666 164.5,440.5C 164.333,420.164 164.5,399.831 165,379.5C 165.5,379 166,378.5 166.5,378C 176.494,377.5 186.494,377.334 196.5,377.5 Z"/></g>
<g><path style="opacity:1" fill="#f3584a" d="M 196.5,377.5 C 200.603,376.769 204.103,377.769 207,380.5C 207.979,403.921 207.646,427.255 206,450.5C 205.25,451.126 204.416,451.626 203.5,452C 191.5,452.667 179.5,452.667 167.5,452C 166.667,451.167 165.833,450.333 165,449.5C 164.502,446.518 164.335,443.518 164.5,440.5C 174.506,440.666 184.506,440.5 194.5,440C 195,439.5 195.5,439 196,438.5C 196.5,418.169 196.667,397.836 196.5,377.5 Z"/></g>
<g><path style="opacity:1" fill="#094d63" d="M 57.5,393.5 C 52.6867,389.116 52.3533,384.45 56.5,379.5C 83.791,378.351 111.124,378.184 138.5,379C 144.157,384.736 143.491,389.736 136.5,394C 110.124,394.815 83.7909,394.649 57.5,393.5 Z"/></g>
<g><path style="opacity:1" fill="#024a61" d="M 57.5,426.5 C 52.2891,421.8 52.2891,417.133 57.5,412.5C 83.7612,411.343 110.095,411.177 136.5,412C 138.329,412.273 139.829,413.107 141,414.5C 143.702,419.82 142.535,423.987 137.5,427C 110.761,427.824 84.0945,427.657 57.5,426.5 Z"/></g>
</svg>
