<svg width="24" height="24" viewBox="0 0 24 24" fill="none" xmlns="http://www.w3.org/2000/svg">
<rect width="24" height="24" fill="#1E1E1E"/>
<rect width="1920" height="1080" transform="translate(-763 -411)" fill="white"/>
<g filter="url(#filter0_i_0_1)">
<path d="M18.3973 0H5.60267C4.11727 0.00169389 2.69319 0.592517 1.64285 1.64285C0.592517 2.69319 0.00169389 4.11727 0 5.60267V18.3973C0.00169389 19.8827 0.592517 21.3068 1.64285 22.3571C2.69319 23.4075 4.11727 23.9983 5.60267 24H18.3973C19.8827 23.9983 21.3068 23.4075 22.3571 22.3571C23.4075 21.3068 23.9983 19.8827 24 18.3973V5.60267C23.9983 4.11727 23.4075 2.69319 22.3571 1.64285C21.3068 0.592517 19.8827 0.00169389 18.3973 0ZM18.64 17.4776C18.7953 17.6329 18.8826 17.8436 18.8826 18.0633C18.8826 18.283 18.7953 18.4937 18.64 18.6491C18.4847 18.8044 18.274 18.8917 18.0543 18.8917C17.8346 18.8917 17.6239 18.8044 17.4685 18.6491L12.0069 13.1883L6.57813 18.6168C6.42279 18.7721 6.21209 18.8594 5.9924 18.8594C5.77271 18.8594 5.56201 18.7721 5.40667 18.6168C5.25132 18.4615 5.16405 18.2508 5.16405 18.0311C5.16405 17.8114 5.25132 17.6007 5.40667 17.4453L10.8355 12.0168L5.3744 6.55573C5.22276 6.39959 5.13864 6.19005 5.14025 5.97239C5.14185 5.75474 5.22904 5.54646 5.38296 5.39256C5.53689 5.23867 5.74519 5.15153 5.96285 5.14998C6.1805 5.14843 6.39003 5.23259 6.54613 5.38427L12.0069 10.8451L17.4691 5.38293C17.6258 5.23421 17.8344 5.15258 18.0504 5.15544C18.2664 5.1583 18.4728 5.24543 18.6255 5.39824C18.7782 5.55106 18.8652 5.75748 18.8679 5.9735C18.8706 6.18953 18.7888 6.39807 18.64 6.55467L13.1784 12.0168L18.64 17.4776Z" fill="#DD1717"/>
</g>
<defs>
<filter id="filter0_i_0_1" x="0" y="0" width="24" height="28" filterUnits="userSpaceOnUse" color-interpolation-filters="sRGB">
<feFlood flood-opacity="0" result="BackgroundImageFix"/>
<feBlend mode="normal" in="SourceGraphic" in2="BackgroundImageFix" result="shape"/>
<feColorMatrix in="SourceAlpha" type="matrix" values="0 0 0 0 0 0 0 0 0 0 0 0 0 0 0 0 0 0 127 0" result="hardAlpha"/>
<feOffset dy="4"/>
<feGaussianBlur stdDeviation="2"/>
<feComposite in2="hardAlpha" operator="arithmetic" k2="-1" k3="1"/>
<feColorMatrix type="matrix" values="0 0 0 0 0 0 0 0 0 0 0 0 0 0 0 0 0 0 0.17 0"/>
<feBlend mode="normal" in2="shape" result="effect1_innerShadow_0_1"/>
</filter>
</defs>
</svg>
