<svg width="74" height="67" viewBox="0 0 74 67" fill="none" xmlns="http://www.w3.org/2000/svg">
<rect width="74" height="67" rx="15" fill="url(#paint0_linear_9_21)"/>
<path d="M44.2685 33.6522L43.8866 34.0143L44.2678 34.3771L60.2231 49.5671C60.2237 49.5677 60.2243 49.5683 60.2249 49.5689C61.0565 50.3776 61.4814 51.4165 61.4274 52.4316L61.4273 52.4328C61.3715 53.5318 60.8788 54.5802 59.9993 55.3296L59.9988 55.33C59.106 56.0926 57.9891 56.5 56.8116 56.5C55.517 56.5 54.3469 56.0421 53.4548 55.2324L37.8083 40.3233L37.4634 39.9946L37.1184 40.3233L21.4719 55.2324C20.5817 56.0401 19.3501 56.5 18.1152 56.5C16.8056 56.5 15.698 56.0872 14.877 55.3403L14.8706 55.3345L14.864 55.3288C14.0376 54.628 13.5 53.5837 13.5 52.5152C13.5 51.4206 13.9364 50.3742 14.764 49.5693C14.7647 49.5686 14.7655 49.5678 14.7662 49.5671L30.7812 34.3778L31.163 34.0157L30.7819 33.6529L14.8262 18.4625C14.8257 18.462 14.8252 18.4615 14.8247 18.461C13.1251 16.8119 13.183 14.1866 14.9882 12.6432C16.8329 11.0682 19.8053 11.1259 21.525 12.7908L21.5249 12.7908L21.5279 12.7936L37.1812 27.7068L37.5254 28.0348L37.8703 27.7075L53.584 12.7943L53.5878 12.7906C55.3031 11.1276 58.2732 11.0663 60.1183 12.638C61.8826 14.2484 61.9766 16.8242 60.2882 18.4606C60.2877 18.4612 60.2871 18.4617 60.2865 18.4623L44.2685 33.6522Z" fill="#FDDEDE" stroke="#B10000"/>
<defs>
<linearGradient id="paint0_linear_9_21" x1="37" y1="0" x2="37" y2="67" gradientUnits="userSpaceOnUse">
<stop offset="0.735069" stop-color="#CC1919"/>
<stop offset="1" stop-color="#660D0D"/>
</linearGradient>
</defs>
</svg>
